<?xml version="1.0" encoding="UTF-8" standalone="no"?>
<!-- Created with Inkscape (http://www.inkscape.org/) -->

<svg
   xmlns:dc="http://purl.org/dc/elements/1.1/"
   xmlns:cc="http://creativecommons.org/ns#"
   xmlns:rdf="http://www.w3.org/1999/02/22-rdf-syntax-ns#"
   xmlns:svg="http://www.w3.org/2000/svg"
   xmlns="http://www.w3.org/2000/svg"
   xmlns:xlink="http://www.w3.org/1999/xlink"
   xmlns:sodipodi="http://sodipodi.sourceforge.net/DTD/sodipodi-0.dtd"
   xmlns:inkscape="http://www.inkscape.org/namespaces/inkscape"
   id="svg5055"
   version="1.1"
   inkscape:version="0.48.4 r9939"
   width="471.25"
   height="267.5"
   xml:space="preserve"
   sodipodi:docname="concurrency_concept_map.svg"><metadata
     id="metadata5061"><rdf:RDF><cc:Work
         rdf:about=""><dc:format>image/svg+xml</dc:format><dc:type
           rdf:resource="http://purl.org/dc/dcmitype/StillImage" /><dc:title></dc:title></cc:Work></rdf:RDF></metadata><defs
     id="defs5059"><clipPath
       clipPathUnits="userSpaceOnUse"
       id="clipPath5071"><path
         d="M 0,0 377,0 377,214 0,214 0,0 z"
         id="path5073" /></clipPath></defs><sodipodi:namedview
     pagecolor="#ffffff"
     bordercolor="#666666"
     borderopacity="1"
     objecttolerance="10"
     gridtolerance="10"
     guidetolerance="10"
     inkscape:pageopacity="0"
     inkscape:pageshadow="2"
     inkscape:window-width="1483"
     inkscape:window-height="1011"
     id="namedview5057"
     showgrid="false"
     inkscape:zoom="2.49536"
     inkscape:cx="229.87829"
     inkscape:cy="129.97529"
     inkscape:window-x="0"
     inkscape:window-y="0"
     inkscape:window-maximized="0"
     inkscape:current-layer="g5069" /><g
     id="g5063"
     inkscape:groupmode="layer"
     inkscape:label="concurrency_concept_map"
     transform="matrix(1.25,0,0,-1.25,0,267.5)"><g
       id="g5065" /><g
       clip-path="url(#clipPath5071)"
       id="g5069"><a
         xlink:href="concurrency.html#realtime"
         target="_top"
         id="a5608"><g
           id="g5600"><path
             inkscape:connector-curvature="0"
             id="path5075"
             style="fill:#d6d6d6;fill-opacity:1;fill-rule:nonzero;stroke:none"
             d="m 155,77 43.5,0 c 1.6569,0 3,-1.34315 3,-3 l 0,-9 c 0,-1.65685 -1.3431,-3 -3,-3 L 155,62 c -1.6569,0 -3,1.34315 -3,3 0,0 0,0 0,0 l 0,9 c 0,1.65685 1.3431,3 3,3 0,0 0,0 0,0 z" /><g
             transform="matrix(1,0,0,-1,-62.5,290.5)"
             id="g5077"><path
               inkscape:connector-curvature="0"
               id="path5079"
               style="fill:none;stroke:#d6d6d6;stroke-width:6;stroke-linecap:round;stroke-linejoin:round;stroke-miterlimit:10;stroke-opacity:1;stroke-dasharray:none"
               d="m 217.5,213.5 43.5,0 c 1.6569,0 3,1.3431 3,3 l 0,9 c 0,1.6569 -1.3431,3 -3,3 l -43.5,0 c -1.6569,0 -3,-1.3431 -3,-3 0,0 0,0 0,0 l 0,-9 c 0,-1.6569 1.3431,-3 3,-3 0,0 0,0 0,0 z" /></g><g
             transform="matrix(1,0,0,-1,176.25,70)"
             id="g5081"><text
               id="text5083"
               transform="translate(-23.12695,4)"><tspan
                 id="tspan5085"
                 sodipodi:role="line"
                 y="0"
                 x="0 7.2480001 12.996 18.117599 20.747999 24.6264 28.6224 31.2528 40.504799"
                 style="font-size:12px;font-variant:normal;font-weight:normal;writing-mode:lr-tb;fill:#000000;fill-opacity:1;fill-rule:nonzero;stroke:none;font-family:Gill Sans;-inkscape-font-specification:GillSans">Real-time</tspan></text>
</g></g></a><g
         transform="matrix(1,0,0,-1,-62.5,290.5)"
         id="g5087"><path
           inkscape:connector-curvature="0"
           id="path5089"
           style="fill:none;stroke:#000000;stroke-width:1;stroke-linecap:round;stroke-linejoin:round;stroke-miterlimit:10;stroke-opacity:1;stroke-dasharray:none"
           d="m 210.766,194.5937 c 7.5933,7.433 16.1791,3.0623 17.4049,16.9599" /></g><a
         xlink:href="concurrency.html#multi"
         target="_top"
         id="a5714"><g
           id="g5703"><path
             inkscape:connector-curvature="0"
             id="path5091"
             style="fill:#d6d6d6;fill-opacity:1;fill-rule:nonzero;stroke:none"
             d="m 254,31.5 46.5556,0 c 1.6568,0 3,-1.34315 3,-3 l 0,-22 c 0,-1.656854 -1.3432,-3 -3,-3 L 254,3.5 c -1.6569,0 -3,1.343146 -3,3 0,0 0,1e-6 0,1e-6 L 251,28.5 c 0,1.65685 1.3431,3 3,3 0,0 0,0 0,0 z" /><g
             transform="matrix(1,0,0,-1,-62.5,290.5)"
             id="g5093"><path
               inkscape:connector-curvature="0"
               id="path5095"
               style="fill:none;stroke:#d6d6d6;stroke-width:6;stroke-linecap:round;stroke-linejoin:round;stroke-miterlimit:10;stroke-opacity:1;stroke-dasharray:none"
               d="m 316.5,259 46.5556,0 c 1.6568,0 3,1.3431 3,3 l 0,22 c 0,1.6569 -1.3432,3 -3,3 L 316.5,287 c -1.6569,0 -3,-1.3431 -3,-3 0,0 0,0 0,0 l 0,-22 c 0,-1.6569 1.3431,-3 3,-3 0,0 0,0 0,0 z" /></g><g
             transform="matrix(1,0,0,-1,276.7778,18)"
             id="g5097"><text
               id="text5099"
               transform="translate(-14.25293,-3)"><tspan
                 id="tspan5101"
                 sodipodi:role="line"
                 y="0"
                 x="0 9.3696003 15.3696 18 21.996 24.6264"
                 style="font-size:12px;font-variant:normal;font-weight:normal;writing-mode:lr-tb;fill:#000000;fill-opacity:1;fill-rule:nonzero;stroke:none;font-family:Gill Sans;-inkscape-font-specification:GillSans">Multi-</tspan></text>
</g><g
             transform="matrix(1,0,0,-1,276.7778,18)"
             id="g5103"><text
               id="text5105"
               transform="translate(-24.40137,11)"><tspan
                 id="tspan5107"
                 sodipodi:role="line"
                 y="0"
                 x="0 6.1176 10.5708 17.1924 22.4484 28.1964 32.813999 37.431599 44.0532"
                 style="font-size:12px;font-variant:normal;font-weight:normal;writing-mode:lr-tb;fill:#000000;fill-opacity:1;fill-rule:nonzero;stroke:none;font-family:Gill Sans;-inkscape-font-specification:GillSans">Processor</tspan></text>
</g></g></a><a
         xlink:href="concurrency.html#gpu"
         target="_top"
         id="a5694"><g
           id="g5686"><path
             inkscape:connector-curvature="0"
             id="path5109"
             style="fill:#d6d6d6;fill-opacity:1;fill-rule:nonzero;stroke:none"
             d="m 316.5,68 53.1,0 c 1.6569,0 3,-1.34315 3,-3 l 0,-9 c 0,-1.65685 -1.3431,-3 -3,-3 l -53.1,0 c -1.6569,0 -3,1.34315 -3,3 0,0 0,0 0,0 l 0,9 c 0,1.65685 1.3431,3 3,3 0,0 0,0 0,0 z" /><g
             transform="matrix(1,0,0,-1,-62.5,290.5)"
             id="g5111"><path
               inkscape:connector-curvature="0"
               id="path5113"
               style="fill:none;stroke:#d6d6d6;stroke-width:6;stroke-linecap:round;stroke-linejoin:round;stroke-miterlimit:10;stroke-opacity:1;stroke-dasharray:none"
               d="m 379,222.5 53.1,0 c 1.6569,0 3,1.3431 3,3 l 0,9 c 0,1.6569 -1.3431,3 -3,3 l -53.1,0 c -1.6569,0 -3,-1.3431 -3,-3 0,0 0,0 0,0 l 0,-9 c 0,-1.6569 1.3431,-3 3,-3 0,0 0,0 0,0 z" /></g><g
             transform="matrix(1,0,0,-1,342.55,61)"
             id="g5115"><text
               id="text5117"
               transform="translate(-27.75,4)"><tspan
                 id="tspan5119"
                 sodipodi:role="line"
                 y="0"
                 x="0 8.8823996 15 23.496 26.865601 32.495998 38.613602 47.495998"
                 style="font-size:12px;font-variant:normal;font-weight:normal;writing-mode:lr-tb;fill:#000000;fill-opacity:1;fill-rule:nonzero;stroke:none;font-family:Gill Sans;-inkscape-font-specification:GillSans">GPU/FPGA</tspan></text>
</g></g></a><a
         xlink:href="concurrency.html#distributed"
         target="_top"
         id="a5734"><g
           id="g5726"><path
             inkscape:connector-curvature="0"
             id="path5121"
             style="fill:#d6d6d6;fill-opacity:1;fill-rule:nonzero;stroke:none"
             d="m 231,68 52.5,0 c 1.6569,0 3,-1.34315 3,-3 l 0,-9 c 0,-1.65685 -1.3431,-3 -3,-3 L 231,53 c -1.6569,0 -3,1.34315 -3,3 0,0 0,0 0,0 l 0,9 c 0,1.65685 1.3431,3 3,3 0,0 0,0 0,0 z" /><g
             transform="matrix(1,0,0,-1,-62.5,290.5)"
             id="g5123"><path
               inkscape:connector-curvature="0"
               id="path5125"
               style="fill:none;stroke:#d6d6d6;stroke-width:6;stroke-linecap:round;stroke-linejoin:round;stroke-miterlimit:10;stroke-opacity:1;stroke-dasharray:none"
               d="m 293.5,222.5 52.5,0 c 1.6569,0 3,1.3431 3,3 l 0,9 c 0,1.6569 -1.3431,3 -3,3 l -52.5,0 c -1.6569,0 -3,-1.3431 -3,-3 0,0 0,0 0,0 l 0,-9 c 0,-1.6569 1.3431,-3 3,-3 0,0 0,0 0,0 z" /></g><g
             transform="matrix(1,0,0,-1,256.75,61)"
             id="g5127"><text
               id="text5129"
               transform="translate(-27.74414,4)"><tspan
                 id="tspan5131"
                 sodipodi:role="line"
                 y="0"
                 x="0 9 11.6304 16.247999 20.243999 24.996 27.6264 33.6264 39.6264 43.622398 49.370399"
                 style="font-size:12px;font-variant:normal;font-weight:normal;writing-mode:lr-tb;fill:#000000;fill-opacity:1;fill-rule:nonzero;stroke:none;font-family:Gill Sans;-inkscape-font-specification:GillSans">Distributed</tspan></text>
</g></g></a><a
         xlink:href="concurrency.html#isolation"
         target="_top"
         id="a5536"><g
           id="g5525"><path
             inkscape:connector-curvature="0"
             id="path5145"
             style="fill:#d6d6d6;fill-opacity:1;fill-rule:nonzero;stroke:none"
             d="m 7.500008,126 64.500002,0 c 1.65685,0 3,-1.3431 3,-3 l 0,-22 c 0,-1.65685 -1.34315,-3 -3,-3 L 7.500008,98 c -1.656855,0 -3,1.34315 -3,3 0,0 0,0 0,0 l 0,22 c 0,1.6569 1.343145,3 3,3 0,0 0,0 0,0 z" /><g
             transform="matrix(1,0,0,-1,-62.5,290.5)"
             id="g5147"><path
               inkscape:connector-curvature="0"
               id="path5149"
               style="fill:none;stroke:#d6d6d6;stroke-width:6;stroke-linecap:round;stroke-linejoin:round;stroke-miterlimit:10;stroke-opacity:1;stroke-dasharray:none"
               d="m 70.00001,164.5 64.49999,0 c 1.6569,0 3,1.3431 3,3 l 0,22 c 0,1.6569 -1.3431,3 -3,3 l -64.49999,0 c -1.65686,0 -3,-1.3431 -3,-3 0,0 0,0 0,0 l 0,-22 c 0,-1.6569 1.34314,-3 3,-3 0,0 0,0 0,0 z" /></g><g
             transform="matrix(1,0,0,-1,39.25001,112.5)"
             id="g5151"><text
               id="text5153"
               transform="translate(-22.30371,-3)"><tspan
                 id="tspan5155"
                 sodipodi:role="line"
                 y="0"
                 x="0 3 7.6176 14.2392 16.8696 21.991199 25.9872 28.617599 35.239201 41.239201"
                 style="font-size:12px;font-variant:normal;font-weight:normal;writing-mode:lr-tb;fill:#000000;fill-opacity:1;fill-rule:nonzero;stroke:none;font-family:Gill Sans;-inkscape-font-specification:GillSans">Isolation/</tspan></text>
</g><g
             transform="matrix(1,0,0,-1,39.25001,112.5)"
             id="g5157"><text
               id="text5159"
               transform="translate(-33.74121,11)"><tspan
                 id="tspan5161"
                 sodipodi:role="line"
                 y="0"
                 x="0 3 9 15.1176 20.865601 26.865601 32.613602 38.613602 44.731201 50.479198 56.479198 61.735199"
                 style="font-size:12px;font-variant:normal;font-weight:normal;writing-mode:lr-tb;fill:#000000;fill-opacity:1;fill-rule:nonzero;stroke:none;font-family:Gill Sans;-inkscape-font-specification:GillSans">Independence</tspan></text>
</g></g></a><a
         xlink:href="concurrency.html#algorithmic"
         target="_top"
         id="a5588"><g
           id="g5577"><path
             inkscape:connector-curvature="0"
             id="path5163"
             style="fill:#d6d6d6;fill-opacity:1;fill-rule:nonzero;stroke:none"
             d="m 35.5,68 56,0 c 1.65685,0 3,-1.34315 3,-3 l 0,-9 c 0,-1.65685 -1.34315,-3 -3,-3 l -56,0 c -1.65685,0 -3,1.34315 -3,3 0,0 0,0 0,0 l 0,9 c 0,1.65685 1.34315,3 3,3 0,0 0,0 0,0 z" /><g
             transform="matrix(1,0,0,-1,-62.5,290.5)"
             id="g5165"><path
               inkscape:connector-curvature="0"
               id="path5167"
               style="fill:none;stroke:#d6d6d6;stroke-width:6;stroke-linecap:round;stroke-linejoin:round;stroke-miterlimit:10;stroke-opacity:1;stroke-dasharray:none"
               d="m 98,222.5 56,0 c 1.6569,0 3,1.3431 3,3 l 0,9 c 0,1.6569 -1.3431,3 -3,3 l -56,0 c -1.65685,0 -3,-1.3431 -3,-3 0,0 0,0 0,0 l 0,-9 c 0,-1.6569 1.34315,-3 3,-3 0,0 0,0 0,0 z" /></g><g
             transform="matrix(1,0,0,-1,63,61)"
             id="g5169"><text
               id="text5171"
               transform="translate(-28.38867,4)"><tspan
                 id="tspan5173"
                 sodipodi:role="line"
                 y="0"
                 x="0 8.0039997 10.6344 15.6384 22.26 27.011999 29.642401 33.638401 39.638401 48.8904 51.520802"
                 style="font-size:12px;font-variant:normal;font-weight:normal;writing-mode:lr-tb;fill:#000000;fill-opacity:1;fill-rule:nonzero;stroke:none;font-family:Gill Sans;-inkscape-font-specification:GillSans">Algorithmic</tspan></text>
</g><g
             transform="matrix(1,0,0,-1,33,67.5)"
             id="g5175"><text
               id="text5177"
               transform="translate(-6.495361,6)"><tspan
                 id="tspan5179"
                 y="0"
                 x="0"
                 style="font-size:17px;font-variant:normal;font-weight:normal;writing-mode:lr-tb;fill:#000000;fill-opacity:1;fill-rule:nonzero;stroke:none;font-family:Lucida Grande;-inkscape-font-specification:LucidaGrande">✓</tspan></text>
</g></g></a><a
         xlink:href="concurrency.html#disk"
         target="_top"
         id="a5628"><g
           id="g5617"><path
             inkscape:connector-curvature="0"
             id="path5133"
             style="fill:#d6d6d6;fill-opacity:1;fill-rule:nonzero;stroke:none"
             d="m 124,23.5 82,0 c 1.6569,0 3,-1.34315 3,-3 l 0,-9 c 0,-1.656854 -1.3431,-3 -3,-3 l -82,0 c -1.6569,0 -3,1.343146 -3,3 0,0 0,0 0,0 l 0,9 c 0,1.65685 1.3431,3 3,3 0,0 0,0 0,0 z" /><g
             transform="matrix(1,0,0,-1,-62.5,290.5)"
             id="g5135"><path
               inkscape:connector-curvature="0"
               id="path5137"
               style="fill:none;stroke:#d6d6d6;stroke-width:6;stroke-linecap:round;stroke-linejoin:round;stroke-miterlimit:10;stroke-opacity:1;stroke-dasharray:none"
               d="m 186.5,267 82,0 c 1.6569,0 3,1.3431 3,3 l 0,9 c 0,1.6569 -1.3431,3 -3,3 l -82,0 c -1.6569,0 -3,-1.3431 -3,-3 0,0 0,0 0,0 l 0,-9 c 0,-1.6569 1.3431,-3 3,-3 0,0 0,0 0,0 z" /></g><g
             transform="matrix(1,0,0,-1,164.5,16.5)"
             id="g5139"><text
               id="text5141"
               transform="translate(-42.42773,4)"><tspan
                 id="tspan5143"
                 sodipodi:role="line"
                 y="0"
                 x="0 9 11.6304 16.247999 21.996 25.365601 34.735199 40.4832 44.479198 52.869598 59.491199 64.243202 69.991203 73.360802 81.856796"
                 style="font-size:12px;font-variant:normal;font-weight:normal;writing-mode:lr-tb;fill:#000000;fill-opacity:1;fill-rule:nonzero;stroke:none;font-family:Gill Sans;-inkscape-font-specification:GillSans">Disk/Network/UI</tspan></text>
</g><g
             transform="matrix(1,0,0,-1,121.6111,23)"
             id="g5181"><text
               id="text5183"
               transform="translate(-6.495361,6)"><tspan
                 id="tspan5185"
                 y="0"
                 x="0"
                 style="font-size:17px;font-variant:normal;font-weight:normal;writing-mode:lr-tb;fill:#000000;fill-opacity:1;fill-rule:nonzero;stroke:none;font-family:Lucida Grande;-inkscape-font-specification:LucidaGrande">✓</tspan></text>
</g></g></a><g
         transform="matrix(1,0,0,-1,-62.5,290.5)"
         id="g5187"><path
           inkscape:connector-curvature="0"
           id="path5189"
           style="fill:none;stroke:#000000;stroke-width:1;stroke-linecap:round;stroke-linejoin:round;stroke-miterlimit:10;stroke-opacity:1;stroke-dasharray:none"
           d="m 375.8383,195.2275 -27.9731,61.0724" /></g><g
         transform="matrix(1,0,0,-1,-62.5,290.5)"
         id="g5191"><path
           inkscape:connector-curvature="0"
           id="path5193"
           style="fill:none;stroke:#000000;stroke-width:1;stroke-linecap:round;stroke-linejoin:round;stroke-miterlimit:10;stroke-opacity:1;stroke-dasharray:none"
           d="m 390.3785,195.2757 10.0632,24.5429" /></g><g
         transform="matrix(1,0,0,-1,-62.5,290.5)"
         id="g5195"><path
           inkscape:connector-curvature="0"
           id="path5197"
           style="fill:none;stroke:#000000;stroke-width:1;stroke-linecap:round;stroke-linejoin:round;stroke-miterlimit:10;stroke-opacity:1;stroke-dasharray:none"
           d="M 363.8408,194.3855 331.3789,220.616" /></g><g
         transform="matrix(1,0,0,-1,-62.5,290.5)"
         id="g5199"><path
           inkscape:connector-curvature="0"
           id="path5201"
           style="fill:none;stroke:#000000;stroke-width:1;stroke-linecap:round;stroke-linejoin:round;stroke-miterlimit:10;stroke-opacity:1;stroke-dasharray:none"
           d="m 293.0987,194.8184 c -17.671,58.5282 -38.1187,41.8631 -57.3896,69.8819" /></g><g
         transform="matrix(1,0,0,-1,-62.5,290.5)"
         id="g5203"><path
           inkscape:connector-curvature="0"
           id="path5205"
           style="fill:none;stroke:#000000;stroke-width:1;stroke-linecap:round;stroke-linejoin:round;stroke-miterlimit:10;stroke-opacity:1;stroke-dasharray:none"
           d="m 310.8479,195.4054 6.2212,24.1895" /></g><g
         transform="matrix(1,0,0,-1,-62.5,290.5)"
         id="g5207"><path
           inkscape:connector-curvature="0"
           id="path5209"
           style="fill:none;stroke:#000000;stroke-width:1;stroke-linecap:round;stroke-linejoin:round;stroke-miterlimit:10;stroke-opacity:1;stroke-dasharray:none"
           d="m 200.068,195.3355 c 1.5094,53.6475 14.7421,41.0704 23.788,68.8354" /></g><a
         xlink:href="concurrency.html#processor"
         target="_top"
         id="a5674"><g
           id="g5663"><path
             inkscape:connector-curvature="0"
             id="path5211"
             style="fill:#d6d6d6;fill-opacity:1;fill-rule:nonzero;stroke:none"
             d="m 296.5,126 49,0 c 1.6569,0 3,-1.3431 3,-3 l 0,-22 c 0,-1.65685 -1.3431,-3 -3,-3 l -49,0 c -1.6569,0 -3,1.34315 -3,3 0,0 0,0 0,0 l 0,22 c 0,1.6569 1.3431,3 3,3 0,0 0,0 0,0 z" /><g
             transform="matrix(1,0,0,-1,-62.5,290.5)"
             id="g5213"><path
               inkscape:connector-curvature="0"
               id="path5215"
               style="fill:none;stroke:#d6d6d6;stroke-width:6;stroke-linecap:round;stroke-linejoin:round;stroke-miterlimit:10;stroke-opacity:1;stroke-dasharray:none"
               d="m 359,164.5 49,0 c 1.6569,0 3,1.3431 3,3 l 0,22 c 0,1.6569 -1.3431,3 -3,3 l -49,0 c -1.6569,0 -3,-1.3431 -3,-3 0,0 0,0 0,0 l 0,-22 c 0,-1.6569 1.3431,-3 3,-3 0,0 0,0 0,0 z" /></g><g
             transform="matrix(1,0,0,-1,320.5,112.5)"
             id="g5217"><text
               id="text5219"
               transform="translate(-24.40137,-3)"><tspan
                 id="tspan5221"
                 sodipodi:role="line"
                 y="0"
                 x="0 6.1176 10.5708 17.1924 22.4484 28.1964 32.813999 37.431599 44.0532 48.805199"
                 style="font-size:12px;font-variant:normal;font-weight:normal;writing-mode:lr-tb;fill:#000000;fill-opacity:1;fill-rule:nonzero;stroke:none;font-family:Gill Sans;-inkscape-font-specification:GillSans">Processor </tspan></text>
</g><g
             transform="matrix(1,0,0,-1,320.5,112.5)"
             id="g5223"><text
               id="text5225"
               transform="translate(-25.62598,11)"><tspan
                 id="tspan5227"
                 sodipodi:role="line"
                 y="0"
                 x="0 6.1176 11.2392 15.9912 21.112801 23.7432 26.3736 32.121601 34.751999 37.382401 42"
                 style="font-size:12px;font-variant:normal;font-weight:normal;writing-mode:lr-tb;fill:#000000;fill-opacity:1;fill-rule:nonzero;stroke:none;font-family:Gill Sans;-inkscape-font-specification:GillSans">Parallelism</tspan></text>
</g></g></a><a
         xlink:href="concurrency.html#system"
         target="_top"
         id="a5651"><g
           id="g5640"><path
             inkscape:connector-curvature="0"
             id="path5229"
             style="fill:#d6d6d6;fill-opacity:1;fill-rule:nonzero;stroke:none"
             d="m 219.5,126 49,0 c 1.6569,0 3,-1.3431 3,-3 l 0,-22 c 0,-1.65685 -1.3431,-3 -3,-3 l -49,0 c -1.6569,0 -3,1.34315 -3,3 0,0 0,0 0,0 l 0,22 c 0,1.6569 1.3431,3 3,3 0,0 0,0 0,0 z" /><g
             transform="matrix(1,0,0,-1,-62.5,290.5)"
             id="g5231"><path
               inkscape:connector-curvature="0"
               id="path5233"
               style="fill:none;stroke:#d6d6d6;stroke-width:6;stroke-linecap:round;stroke-linejoin:round;stroke-miterlimit:10;stroke-opacity:1;stroke-dasharray:none"
               d="m 282,164.5 49,0 c 1.6569,0 3,1.3431 3,3 l 0,22 c 0,1.6569 -1.3431,3 -3,3 l -49,0 c -1.6569,0 -3,-1.3431 -3,-3 0,0 0,0 0,0 l 0,-22 c 0,-1.6569 1.3431,-3 3,-3 0,0 0,0 0,0 z" /></g><g
             transform="matrix(1,0,0,-1,243.5,112.5)"
             id="g5235"><text
               id="text5237"
               transform="translate(-17.18262,-3)"><tspan
                 id="tspan5239"
                 sodipodi:role="line"
                 y="0"
                 x="0 5.4959998 10.752 15.3696 19.365601 25.1136 34.365601"
                 style="font-size:12px;font-variant:normal;font-weight:normal;writing-mode:lr-tb;fill:#000000;fill-opacity:1;fill-rule:nonzero;stroke:none;font-family:Gill Sans;-inkscape-font-specification:GillSans">System </tspan></text>
</g><g
             transform="matrix(1,0,0,-1,243.5,112.5)"
             id="g5241"><text
               id="text5243"
               transform="translate(-25.62598,11)"><tspan
                 id="tspan5245"
                 sodipodi:role="line"
                 y="0"
                 x="0 6.1176 11.2392 15.9912 21.112801 23.7432 26.3736 32.121601 34.751999 37.382401 42"
                 style="font-size:12px;font-variant:normal;font-weight:normal;writing-mode:lr-tb;fill:#000000;fill-opacity:1;fill-rule:nonzero;stroke:none;font-family:Gill Sans;-inkscape-font-specification:GillSans">Parallelism</tspan></text>
</g></g></a><g
         transform="matrix(1,0,0,-1,-62.5,290.5)"
         id="g5265"><path
           inkscape:connector-curvature="0"
           id="path5267"
           style="fill:none;stroke:#000000;stroke-width:1;stroke-linecap:round;stroke-linejoin:round;stroke-miterlimit:10;stroke-opacity:1;stroke-dasharray:none"
           d="m 320.0339,139.5686 38.0865,23.3627" /></g><g
         transform="matrix(1,0,0,-1,-62.5,290.5)"
         id="g5269"><path
           inkscape:connector-curvature="0"
           id="path5271"
           style="fill:none;stroke:#000000;stroke-width:1;stroke-linecap:round;stroke-linejoin:round;stroke-miterlimit:10;stroke-opacity:1;stroke-dasharray:none"
           d="m 305.5234,140.999 0.534,20.502" /></g><g
         transform="matrix(1,0,0,-1,-62.5,290.5)"
         id="g5273"><path
           inkscape:connector-curvature="0"
           id="path5275"
           style="fill:none;stroke:#000000;stroke-width:1;stroke-linecap:round;stroke-linejoin:round;stroke-miterlimit:10;stroke-opacity:1;stroke-dasharray:none"
           d="m 154.888,139.7777 -31.1908,22.9446" /></g><g
         transform="matrix(1,0,0,-1,-62.5,290.5)"
         id="g5277"><path
           inkscape:connector-curvature="0"
           id="path5279"
           style="fill:none;stroke:#000000;stroke-width:1;stroke-linecap:round;stroke-linejoin:round;stroke-miterlimit:10;stroke-opacity:1;stroke-dasharray:none"
           d="m 163.217,140.7688 -32.934,78.9624" /></g><g
         transform="matrix(1,0,0,-1,-62.5,290.5)"
         id="g5281"><path
           inkscape:connector-curvature="0"
           id="path5283"
           style="fill:none;stroke:#000000;stroke-width:1;stroke-linecap:round;stroke-linejoin:round;stroke-miterlimit:10;stroke-opacity:1;stroke-dasharray:none"
           d="m 173.1403,140.6205 11.8478,21.2589" /></g><a
         xlink:href="concurrency.html#expressiveness"
         target="_top"
         id="a5516"><g
           id="g5508"><path
             inkscape:connector-curvature="0"
             id="path5285"
             style="fill:#d6d6d6;fill-opacity:1;fill-rule:nonzero;stroke:none"
             d="m 70.5,167.5 69,0 c 1.6569,0 3,-1.3431 3,-3 l 0,-9 c 0,-1.6569 -1.3431,-3 -3,-3 l -69,0 c -1.65685,0 -3,1.3431 -3,3 0,0 0,0 0,0 l 0,9 c 0,1.6569 1.34315,3 3,3 0,0 0,0 0,0 z" /><g
             transform="matrix(1,0,0,-1,-62.5,290.5)"
             id="g5287"><path
               inkscape:connector-curvature="0"
               id="path5289"
               style="fill:none;stroke:#d6d6d6;stroke-width:6;stroke-linecap:round;stroke-linejoin:round;stroke-miterlimit:10;stroke-opacity:1;stroke-dasharray:none"
               d="m 133,123 69,0 c 1.6569,0 3,1.3431 3,3 l 0,9 c 0,1.6569 -1.3431,3 -3,3 l -69,0 c -1.6569,0 -3,-1.3431 -3,-3 0,0 0,0 0,0 l 0,-9 c 0,-1.6569 1.3431,-3 3,-3 0,0 0,0 0,0 z" /></g><g
             transform="matrix(1,0,0,-1,104.5,160.5)"
             id="g5291"><text
               id="text5293"
               transform="translate(-35.93555,4)"><tspan
                 id="tspan5295"
                 sodipodi:role="line"
                 y="0"
                 x="0 6 12 18 22.511999 28.26 32.877602 37.495201 40.125599 45.141602 50.889599 56.889599 62.6376 67.255203"
                 style="font-size:12px;font-variant:normal;font-weight:normal;writing-mode:lr-tb;fill:#000000;fill-opacity:1;fill-rule:nonzero;stroke:none;font-family:Gill Sans;-inkscape-font-specification:GillSans">Expressiveness</tspan></text>
</g></g></a><a
         xlink:href="concurrency.html#performance"
         target="_top"
         id="a5499"><g
           id="g5491"><path
             inkscape:connector-curvature="0"
             id="path5297"
             style="fill:#d6d6d6;fill-opacity:1;fill-rule:nonzero;stroke:none"
             d="m 213,167.5 59.5,0 c 1.6569,0 3,-1.3431 3,-3 l 0,-9 c 0,-1.6569 -1.3431,-3 -3,-3 l -59.5,0 c -1.6569,0 -3,1.3431 -3,3 0,0 0,0 0,0 l 0,9 c 0,1.6569 1.3431,3 3,3 0,0 0,0 0,0 z" /><g
             transform="matrix(1,0,0,-1,-62.5,290.5)"
             id="g5299"><path
               inkscape:connector-curvature="0"
               id="path5301"
               style="fill:none;stroke:#d6d6d6;stroke-width:6;stroke-linecap:round;stroke-linejoin:round;stroke-miterlimit:10;stroke-opacity:1;stroke-dasharray:none"
               d="m 275.5,123 59.5,0 c 1.6569,0 3,1.3431 3,3 l 0,9 c 0,1.6569 -1.3431,3 -3,3 l -59.5,0 c -1.6569,0 -3,-1.3431 -3,-3 0,0 0,0 0,0 l 0,-9 c 0,-1.6569 1.3431,-3 3,-3 0,0 0,0 0,0 z" /></g><g
             transform="matrix(1,0,0,-1,242.25,160.5)"
             id="g5303"><text
               id="text5305"
               transform="translate(-30.97559,4)"><tspan
                 id="tspan5307"
                 sodipodi:role="line"
                 y="0"
                 x="0 5.8188 11.5668 16.3188 19.2012 25.8228 30.5748 39.826801 44.948399 50.948399 56.204399"
                 style="font-size:12px;font-variant:normal;font-weight:normal;writing-mode:lr-tb;fill:#000000;fill-opacity:1;fill-rule:nonzero;stroke:none;font-family:Gill Sans;-inkscape-font-specification:GillSans">Performance</tspan></text>
</g></g></a><g
         transform="matrix(1,0,0,-1,-62.5,290.5)"
         id="g5309"><path
           inkscape:connector-curvature="0"
           id="path5311"
           style="fill:none;stroke:#000000;stroke-width:1;stroke-linecap:round;stroke-linejoin:round;stroke-miterlimit:10;stroke-opacity:1;stroke-dasharray:none"
           d="m 219.5402,97.5976 -37.8031,23.7845" /></g><g
         transform="matrix(1,0,0,-1,-62.5,290.5)"
         id="g5313"><path
           inkscape:connector-curvature="0"
           id="path5315"
           style="fill:none;stroke:#000000;stroke-width:1;stroke-linecap:round;stroke-linejoin:round;stroke-miterlimit:10;stroke-opacity:1;stroke-dasharray:none"
           d="m 249.3573,97.51925 40.7663,23.94185" /></g><path
         inkscape:connector-curvature="0"
         id="path5317"
         style="fill:#d6d6d6;fill-opacity:1;fill-rule:nonzero;stroke:none"
         d="m 140.75,209.5 61.5,0 c 1.6569,0 3,-1.3431 3,-3 l 0,-9 c 0,-1.6569 -1.3431,-3 -3,-3 l -61.5,0 c -1.6569,0 -3,1.3431 -3,3 0,0 0,0 0,0 l 0,9 c 0,1.6569 1.3431,3 3,3 0,0 0,0 0,0 z" /><g
         transform="matrix(1,0,0,-1,-62.5,290.5)"
         id="g5319"><path
           inkscape:connector-curvature="0"
           id="path5321"
           style="fill:none;stroke:#d6d6d6;stroke-width:6;stroke-linecap:round;stroke-linejoin:round;stroke-miterlimit:10;stroke-opacity:1;stroke-dasharray:none"
           d="m 203.25,81 61.5,0 c 1.6569,0 3,1.34315 3,3 l 0,9 c 0,1.65685 -1.3431,3 -3,3 l -61.5,0 c -1.6569,0 -3,-1.34315 -3,-3 0,0 0,0 0,0 l 0,-9 c 0,-1.65685 1.3431,-3 3,-3 0,0 0,0 0,0 z" /></g><g
         transform="matrix(1,0,0,-1,171,202.5)"
         id="g5323"><text
           id="text5325"
           transform="translate(-31.88965,4)"><tspan
             id="tspan5327"
             sodipodi:role="line"
             y="0"
             x="0 8.4960003 15.1176 21.117599 26.3736 32.3736 37.007999 41.52 47.268002 53.268002 58.523998"
             style="font-size:12px;font-variant:normal;font-weight:normal;writing-mode:lr-tb;fill:#000000;fill-opacity:1;fill-rule:nonzero;stroke:none;font-family:Gill Sans;-inkscape-font-specification:GillSans">Concurrency</tspan></text>
</g><g
         transform="matrix(1,0,0,-1,-62.5,290.5)"
         id="g5329"><path
           inkscape:connector-curvature="0"
           id="path5331"
           style="fill:none;stroke:#000000;stroke-width:1;stroke-linecap:round;stroke-linejoin:round;stroke-miterlimit:10;stroke-opacity:1;stroke-dasharray:none"
           d="m 298.0127,140.4239 c -32.1162,29.0001 -45.1264,11.7773 -51.5254,70.6522" /></g><a
         xlink:href="concurrency.html#reactive"
         target="_top"
         id="a5562"><g
           id="g5548"><path
             inkscape:connector-curvature="0"
             id="path5247"
             style="fill:#d6d6d6;fill-opacity:1;fill-rule:nonzero;stroke:none"
             d="m 107,126 49.5,0 c 1.6569,0 3,-1.3431 3,-3 l 0,-22 c 0,-1.65685 -1.3431,-3 -3,-3 L 107,98 c -1.6569,0 -3,1.34315 -3,3 0,0 0,0 0,0 l 0,22 c 0,1.6569 1.3431,3 3,3 0,0 0,0 0,0 z" /><g
             transform="matrix(1,0,0,-1,-62.5,290.5)"
             id="g5249"><path
               inkscape:connector-curvature="0"
               id="path5251"
               style="fill:none;stroke:#d6d6d6;stroke-width:6;stroke-linecap:round;stroke-linejoin:round;stroke-miterlimit:10;stroke-opacity:1;stroke-dasharray:none"
               d="m 169.5,164.5 49.5,0 c 1.6569,0 3,1.3431 3,3 l 0,22 c 0,1.6569 -1.3431,3 -3,3 l -49.5,0 c -1.6569,0 -3,-1.3431 -3,-3 0,0 0,0 0,0 l 0,-22 c 0,-1.6569 1.3431,-3 3,-3 0,0 0,0 0,0 z" /></g><g
             transform="matrix(1,0,0,-1,131.25,112.5)"
             id="g5253"><text
               id="text5255"
               transform="translate(-22.06641,-3)"><tspan
                 id="tspan5257"
                 sodipodi:role="line"
                 y="0"
                 x="0 7.2480001 12.996 18.117599 23.3736 27.3696 30 35.015999 40.764"
                 style="font-size:12px;font-variant:normal;font-weight:normal;writing-mode:lr-tb;fill:#000000;fill-opacity:1;fill-rule:nonzero;stroke:none;font-family:Gill Sans;-inkscape-font-specification:GillSans">Reactive/</tspan></text>
</g><g
             transform="matrix(1,0,0,-1,131.25,112.5)"
             id="g5259"><text
               id="text5261"
               transform="translate(-25.63184,11)"><tspan
                 id="tspan5263"
                 sodipodi:role="line"
                 y="0"
                 x="0 3 9 12.996 18.743999 23.496 28.617599 33.8736 37.869598 40.5 45.515999"
                 style="font-size:12px;font-variant:normal;font-weight:normal;writing-mode:lr-tb;fill:#000000;fill-opacity:1;fill-rule:nonzero;stroke:none;font-family:Gill Sans;-inkscape-font-specification:GillSans">Interactive</tspan></text>
</g><g
             transform="matrix(1,0,0,-1,104,125.5)"
             id="g5333"><text
               id="text5335"
               transform="translate(-6.495361,6)"><tspan
                 id="tspan5337"
                 y="0"
                 x="0"
                 style="font-size:17px;font-variant:normal;font-weight:normal;writing-mode:lr-tb;fill:#000000;fill-opacity:1;fill-rule:nonzero;stroke:none;font-family:Lucida Grande;-inkscape-font-specification:LucidaGrande">✓</tspan></text>
</g></g></a></g></g></svg>